<svg width="51" height="50" viewBox="0 0 51 50" fill="none" xmlns="http://www.w3.org/2000/svg">
<rect x="0.0200195" width="50" height="50" rx="25" fill="#009868" fill-opacity="0.1"/>
<path d="M34.2778 16.4766C34.7075 16.5938 35.02 16.9453 35.02 17.375C35.02 27.4141 26.895 35.5 16.895 35.5C16.4263 35.5 16.0747 35.2266 15.9575 34.7969L15.02 30.7344C14.9419 30.3047 15.1372 29.8359 15.5669 29.6406L19.9419 27.7656C20.3325 27.6094 20.7622 27.7266 21.0356 28.0391L22.9888 30.4219C26.0356 28.9766 28.4966 26.4766 29.9028 23.5078L27.52 21.5547C27.2075 21.2812 27.0903 20.8516 27.2466 20.4609L29.1216 16.0859C29.3169 15.6562 29.7856 15.4219 30.2153 15.5391L34.2778 16.4766Z" fill="#009868"/>
</svg>
