<svg width="16" height="16" viewBox="0 0 16 16" fill="none" xmlns="http://www.w3.org/2000/svg">
<path d="M15.77 8C15.77 12.2812 12.3013 15.75 8.02002 15.75C3.73877 15.75 0.27002 12.2812 0.27002 8C0.27002 3.71875 3.73877 0.25 8.02002 0.25C12.3013 0.25 15.77 3.71875 15.77 8ZM1.77002 8C1.77002 11.4688 4.55127 14.25 8.02002 14.25C11.4575 14.25 14.27 11.4688 14.27 8C14.27 4.5625 11.4575 1.75 8.02002 1.75C4.55127 1.75 1.77002 4.5625 1.77002 8ZM4.02002 8.625V7.375C4.02002 7.1875 4.17627 7 4.39502 7H8.02002V4.90625C8.02002 4.59375 8.39502 4.40625 8.64502 4.65625L11.7388 7.75C11.895 7.90625 11.895 8.125 11.7388 8.28125L8.64502 11.375C8.39502 11.625 8.02002 11.4375 8.02002 11.0938V9H4.39502C4.17627 9 4.02002 8.84375 4.02002 8.625Z" fill="white"/>
</svg>
